<?xml version="1.0" encoding="UTF-8"?><svg id="Layer_1" xmlns="http://www.w3.org/2000/svg" xmlns:xlink="http://www.w3.org/1999/xlink" viewBox="0 0 151.2 237.6"><defs><style>.cls-1,.cls-2{fill:none;}.cls-3{clip-path:url(#clippath);}.cls-4{fill:#fff;}.cls-5{fill:#e5e5e5;}.cls-6{fill:#0e2344;}.cls-7,.cls-8{fill:#0e4c9b;}.cls-9{letter-spacing:-.03em;}.cls-8{font-family:ProximaNova-Bold, 'Proxima Nova';font-size:6px;font-weight:700;}.cls-2{stroke:#231f20;stroke-miterlimit:10;stroke-width:.5px;}</style><clipPath id="clippath"><rect class="cls-1" x="0" width="151.2" height="237.6"/></clipPath></defs><g class="cls-3"><path class="cls-7" d="m-18.28-41.14C-3.56-100.09,53.12-137.51,111.97-129.5c-4.04-1.49-8.2-2.79-12.47-3.86-63.23-15.78-127.29,22.68-143.07,85.91C-59.36,15.78-20.9,79.84,42.33,95.62c4.28,1.07,8.55,1.88,12.82,2.46C-.55,77.49-33,17.82-18.28-41.14Z"/><circle class="cls-6" cx="104.95" cy="-13.2" r="118" transform="translate(40.07 70.34) rotate(-45)"/><circle class="cls-7" cx="104.95" cy="-23.2" r="118" transform="translate(47.14 67.41) rotate(-45)"/><g><path class="cls-4" d="m66.55,52.38c-1.45,1.92-4.22,2.7-6.57,1.9-2.37-.8-4-2.97-3.95-5.49.06-2.6,1.84-4.76,4.37-5.41,2.46-.63,4.91.38,6.17,2.09-1.1-.53-2.2-.63-3.32-.23-.81.29-1.46.77-1.94,1.46-1,1.41-.96,3.21.09,4.57.59.76,1.36,1.26,2.32,1.47.95.21,1.87.09,2.82-.35Zm-7.62.27c.36,0,.68-.02,1,0,.25.02.3-.07.3-.3,0-2.28,0-4.56,0-6.84v-.26h-2.68c.17.28.33.53.46.79.17.36.39.62.86.52.01,0,.03.02.06.04v6.05Z"/><path class="cls-4" d="m67.43,48.92c0,1.5-1.23,2.71-2.78,2.72-1.55.01-2.8-1.21-2.8-2.75,0-1.5,1.25-2.69,2.81-2.68,1.55,0,2.77,1.21,2.77,2.72Z"/><path class="cls-4" d="m70.35,52.45h-1.59v-6.84s.09-.02.13-.02c.89,0,1.79-.01,2.68,0,.32,0,.66.07.97.16.85.25,1.33.89,1.4,1.75.13,1.69-1.15,2.48-2.4,2.57-.32.02-.64.02-.96.02-.17,0-.22.06-.22.22,0,.61,0,1.23,0,1.84v.3Zm0-5.68c0,.71,0,1.35,0,2,0,.05.1.13.16.13.29,0,.57,0,.86-.03.53-.07.83-.42.85-.95.02-.62-.21-.97-.78-1.07-.35-.06-.7-.05-1.09-.08Z"/><path class="cls-4" d="m83.65,52.45h-1.44v-.67c-.07.09-.1.12-.13.16-.56.74-1.54.75-2.16.5-.58-.23-.91-.88-.81-1.55.12-.86.69-1.34,1.72-1.46.45-.05.91-.11,1.35-.17.05-.39-.15-.67-.53-.75-.61-.12-1.16.04-1.7.3-.1.05-.2.1-.34.18,0-.38,0-.74,0-1.09,0-.04.07-.1.11-.11.81-.3,1.64-.47,2.51-.28.82.18,1.35.66,1.39,1.45.07,1.15.02,2.31.02,3.49Zm-1.48-2.3c-.35.05-.7.08-1.05.14-.4.07-.62.36-.57.69.06.35.36.54.77.5.62-.06.98-.63.84-1.34Z"/><path class="cls-4" d="m78.75,50.44h-3.26c-.02.53.34.93.9,1.02.59.09,1.15.02,1.69-.24.06-.03.12-.05.22-.08,0,.34,0,.66,0,.98,0,.06-.08.15-.14.17-.97.35-1.96.44-2.94.05-.74-.29-1.15-.89-1.26-1.64-.16-1.04-.03-2,.87-2.73.74-.6,1.97-.73,2.81-.29.75.4,1.04,1.07,1.11,1.85.02.29,0,.58,0,.9Zm-1.47-.95c0-.69-.31-1.03-.87-1.02-.49.01-.94.51-.91,1.02h1.78Z"/><path class="cls-4" d="m94.84,47.59v1.15c-.36-.09-.71-.2-1.07-.25-.24-.03-.5.01-.73.09-.28.09-.31.38-.08.56.14.11.31.17.48.24.32.13.65.23.96.37,1.04.48.96,1.89.11,2.42-.58.36-1.21.43-1.87.4-.39-.02-.78-.11-1.18-.17-.15-.02-.21-.1-.21-.26.01-.34,0-.67,0-1.05.11.06.2.1.29.14.49.23,1.01.36,1.56.27.1-.02.2-.04.3-.08.3-.14.33-.44.05-.61-.16-.1-.34-.15-.52-.22-.3-.12-.62-.21-.91-.36-.95-.48-1.05-1.75-.18-2.37.57-.4,1.23-.47,1.91-.43.36.02.72.1,1.08.16Z"/><path class="cls-4" d="m90.93,51.34c0,.34,0,.64,0,.94,0,.06-.08.16-.14.16-.44.05-.88.13-1.31.11-.68-.04-1.13-.53-1.18-1.19-.01-.14-.02-.29-.02-.43,0-1.81,0-3.62,0-5.42v-.31h1.57v.29c0,1.75,0,3.5,0,5.25,0,.27.04.52.33.62.15.05.32.02.48.02.08,0,.15-.02.27-.05Z"/><path class="cls-4" d="m86.05,52.45h-1.58v-4.88h1.57v.74s.03,0,.04,0c.06-.09.11-.18.17-.27.29-.44.82-.67,1.34-.57.07.01.16.11.17.16.01.42,0,.84,0,1.24-.26-.03-.51-.11-.75-.09-.59.05-.96.5-.97,1.17-.01.73,0,1.46,0,2.19,0,.09,0,.18,0,.29Z"/></g><text class="cls-8" transform="translate(14.29 185.59)"><tspan x="0" y="0">EMP CODE:</tspan></text><text class="cls-8" transform="translate(14.29 196.88)"><tspan x="0" y="0">B</tspan><tspan class="cls-9" x="3.98" y="0">L</tspan><tspan x="6.95" y="0">OOD:</tspan></text><rect class="cls-5" x="10" y="170.61" width="131.21" height="1.06"/><g><rect class="cls-4" x="53.61" y="63.16" width="48.03" height="53.96"/><rect class="cls-2" x="53.61" y="63.16" width="48.03" height="53.96"/></g><text class="cls-8" transform="translate(14.29 207.97)"><tspan x="0" y="0">PHONE:</tspan></text></g></svg>